<?xml version="1.0"?>
<svg xmlns="http://www.w3.org/2000/svg" version="1.2" baseProfile="tiny" width="1000" height="600" viewBox="0 0 1000 600" stroke-linecap="round" stroke-linejoin="round">
  <style><![CDATA[
    .sea { fill: #75b9e6; }
    #turkey-provinces path {
      fill: #1f2937;
      stroke: #0f172a;
      stroke-width: 1.1;
      cursor: default;
      will-change: transform, filter, stroke-width;
      transition: fill 0.2s ease, stroke 0.2s ease, stroke-width 0.2s ease, transform 0.2s ease;
    }
    #turkey-provinces path:focus {
      outline: none;
      box-shadow: none;
    }
    #turkey-provinces path:hover {
      fill: #334155;
      stroke: #facc15;
      stroke-width: 2.4;
      transform: translateY(-2px);
      filter: drop-shadow(0 0 10px rgba(250,204,21,0.6));
    }
  ]]></style>
  <rect class="sea" width="1000" height="600" />
  <g id="turkey-provinces">
<path d="M 548.55 394.63 533.59 400.86 526.39 414.16 534.77 436.06 529.08 445.65 512.85 454.48 509.2 466.36 495.61 465.27 475.22 455.84 483.18 449.92 468.25 411.57 472.8 390.72 483.57 390.48 493.75 374.11 511.69 374.8 515.7 367.4 533.27 358.97 540.33 344.45 554.15 340.85 558.55 350.21 549.23 379.03 548.55 394.63 Z" id="TR-01"/>
<path d="M 697.07 359.03 700.61 369.34 690.92 376.83 682.39 394.97 647.23 410.83 641.02 408.82 628.03 401.88 618.36 403.87 607.75 391.17 614.94 384.15 647.87 376.8 645.42 365.41 659.37 358.03 673.58 365.27 697.07 359.03 Z" id="TR-02"/>
<path d="M 305.09 297.81 299.61 324.34 304.16 328.94 281.49 342.8 272.92 337.04 257.09 352.31 241.78 359.77 215.94 386.57 207.21 387.34 197.61 381.23 197.73 372.14 216.64 359.3 210.4 343.1 202.45 340.96 209.8 323.74 221.48 316.24 230.28 297.63 239.35 290.14 249.21 298.9 262.95 289.51 279.69 285.46 289.2 296.52 305.09 297.81 Z" id="TR-03"/>
<path d="M 981.72 256.73 978.8 274.49 958.11 279.61 924.8 277.54 912.28 282.07 903.8 297.64 889.39 301.6 885.1 286.87 874.25 271.07 875.16 252.19 879.69 239.48 887.33 241.53 908.07 235.31 921.14 238.44 923.45 249.98 943.24 251.03 955.12 257.38 981.72 256.73 Z" id="TR-04"/>
<path d="M 440.72 318.07 437.76 325.02 447.69 341.98 447.74 359.92 433.48 370.47 400.81 375.86 386.83 357.9 394.1 333.67 398.56 328.68 417.8 323.31 423.82 317.39 422.96 303.57 440.72 318.07 Z" id="TR-05"/>
<path d="M 556.25 175.7 557.58 186.42 541.68 205.01 523.6 201.99 506.77 222.82 497.27 220.12 502.31 193.4 484.7 187.82 481.03 177.54 484.63 160.3 505.36 165.77 517.46 175.25 537.61 176.79 543.35 168.02 556.25 175.7 Z" id="TR-06"/>
<path d="M 412.52 216.7 404.39 232.95 405.68 243.6 392.81 252.95 386.47 278.97 401.89 286.82 422.96 303.57 423.82 317.39 417.8 323.31 398.56 328.68 393.2 318.57 393.75 301.55 383.9 285.32 371.69 295.61 345.7 304.47 327.98 302.04 314.94 292.33 321.72 282.89 320.77 269.81 313.25 254.72 313.83 244.93 301.23 234.88 263.82 232.67 261.59 226.22 270.46 208.82 296.5 214.56 329.93 206.44 340.82 207.23 347.62 187.22 371.94 194.75 383.62 206.67 412.52 216.7 Z" id="TR-07"/>
<path d="M 345.99 454.12 347.93 466.88 355.9 474.12 351.03 496.72 336.73 487.96 322.68 468.09 303.29 460.68 284.63 449.98 268.59 447.08 245.94 450.86 246.46 465.48 241.16 485.04 225.88 482.68 203.63 494.33 181.47 488.21 176.39 483.6 180.33 473.84 192.2 464 198.69 443.08 210.73 425.61 231.03 417.51 238.86 422.98 259.35 420.53 263.8 413.13 285.34 409.69 292 415.02 314.04 419.6 333.75 438.13 345.99 454.12 Z" id="TR-08"/>
<path d="M 917.45 153.82 911.48 166.57 899.09 170.88 893.94 186.57 878.72 191.63 867.24 167.82 880.58 150.8 874.75 135.84 880.63 126.66 891.17 126.1 917.45 153.82 Z" id="TR-09"/>
<path d="M 874.75 135.84 880.58 150.8 867.24 167.82 850.42 171.46 844.66 191.64 830.79 190.28 816.06 195.89 815.41 181.96 803.35 179.97 815.6 163.58 808.07 145.44 825.87 129.75 840.4 136.2 847.38 129.87 874.75 135.84 Z" id="TR-10"/>
<path d="M 141.6 406.16 125.97 398.97 117.91 406.16 103.58 407.53 83.93 399.73 78.72 410.27 68.4 410.45 66.99 399.78 70.96 378.54 85.8 372.43 123.24 370.05 139.26 364.12 147.71 364.75 156.15 391.59 141.6 406.16 Z" id="TR-11"/>
<path d="M 121.06 208.43 116.98 230.46 125.68 244.86 160.58 264.03 156.35 279.21 144.66 293 119.49 300.56 104.15 288.1 105.28 281.77 78.35 278.2 66.14 275.48 44.35 292.37 39.31 266.17 42.2 255.38 58.11 249.84 78.91 247.78 87.29 214.39 98.12 214.36 96.27 199.62 121.06 208.43 Z" id="TR-12"/>
<path d="M 370.04 127.81 353 143.1 339.83 149.95 322.22 127.18 336.16 116.1 357.11 108.03 370.04 127.81 Z" id="TR-13"/>
<path d="M 832.56 358.33 828.96 368.82 818.62 376.47 843.08 388.71 827.19 399.53 806.88 400.91 799.62 388.76 809.01 359.61 810.69 342.09 818.93 336.37 824.49 335.05 830.37 337.52 832.56 358.33 Z" id="TR-14"/>
<path d="M 759.16 233.19 748.78 231.29 732.64 240.61 737.53 212.14 748.94 200.53 769.58 198.93 770.37 198.93 775.35 217.53 784.52 225.16 769.62 234.06 759.16 233.19 Z" id="TR-15"/>
<path d="M 248.36 212.78 253.8 224.05 245.59 225.77 241.42 237.99 216.41 248.83 217.75 256.92 200.73 253.65 198.31 242.37 198.89 231.56 212.29 199.2 222.67 210.51 240 209.06 248.36 212.78 Z" id="TR-16"/>
<path d="M 808.45 279.98 811.4 302.11 805.25 311.29 810.96 322.67 792.13 331.65 772 330.25 759.47 339.57 756.68 330.59 764.43 317.56 759.31 308.24 762.74 288.77 744.54 298.02 772.74 266.86 776.81 268.2 789.61 265.64 808.45 279.98 Z" id="TR-17"/>
<path d="M 893.93 367.01 887.93 370.43 860.74 356.87 851.12 362.73 832.56 358.33 830.37 337.52 824.49 335.05 843.12 331.64 849.56 317.31 866.5 308.35 890.54 308.04 889.39 301.6 903.8 297.64 913.08 312.23 897.47 335.36 886.24 345.26 893.93 367.01 Z" id="TR-18"/>
<path d="M 325.98 165.34 348.56 177.83 347.62 187.22 340.82 207.23 329.93 206.44 296.5 214.56 270.46 208.82 261.59 226.22 253.8 224.05 248.36 212.78 251.13 200.11 265.43 196.34 265.85 188.74 290.41 187.97 293.05 175.62 307.43 170.07 307.17 163.64 325.98 165.34 Z" id="TR-19"/>
<path d="M 263.8 413.13 259.35 420.53 238.86 422.98 231.03 417.51 210.73 425.61 198.69 443.08 183.02 432.72 193.14 410.63 190.37 398.61 207.21 387.34 215.94 386.57 232.8 382.07 253.18 394 263.8 413.13 Z" id="TR-20"/>
<path d="M 212.29 199.2 198.89 231.56 198.31 242.37 184.03 242.3 174.65 266.19 160.58 264.03 125.68 244.86 116.98 230.46 121.06 208.43 150.27 208.71 164.23 202.86 164.9 197.28 185.31 197.21 202.24 193.64 211.41 196.01 212.29 199.2 Z" id="TR-21"/>
<path d="M 87.29 214.39 78.91 247.78 58.11 249.84 42.2 255.38 39.31 266.17 23.41 271.15 7.24 271.5 12.57 259.24 13.29 236.69 20.91 234.69 43.7 208.1 61.51 205.41 87.29 214.39 Z M 58.35 195.1 43.06 202.97 26.35 220.7 19.46 211.67 48.06 195.75 45.83 190.49 45.37 184.3 58.99 183.33 58.35 195.1 Z" fill-rule="evenodd" id="TR-22"/>
<path d="M 428.74 177.01 435.26 206.11 425.01 217.92 412.52 216.7 383.62 206.67 371.94 194.75 347.62 187.22 348.56 177.83 357.69 169.57 375.45 165.48 378.05 160.42 394.02 169.22 417.75 159.83 417.84 172.47 428.74 177.01 Z" id="TR-23"/>
<path d="M 474 148.89 484.63 160.3 481.03 177.54 484.7 187.82 502.31 193.4 497.27 220.12 482.72 233.83 448.34 236.36 429.71 242.41 436.96 233.8 425.01 217.92 435.26 206.11 428.74 177.01 440.29 172.53 437.97 163.83 451.98 145.37 474 148.89 Z" id="TR-24"/>
<path d="M 207.21 387.34 190.37 398.61 193.14 410.63 183.02 432.72 176.37 445.56 165.87 430.86 150.99 421.36 141.6 406.16 156.15 391.59 147.71 364.75 158.34 353.62 174.22 358.31 191.28 358.32 202.45 340.96 210.4 343.1 216.64 359.3 197.73 372.14 197.61 381.23 207.21 387.34 Z" id="TR-25"/>
<path d="M 818.93 336.37 810.69 342.09 809.01 359.61 799.62 388.76 785.39 390.11 758.46 400.19 737.75 400.94 736.53 387.91 713.02 371.72 700.61 369.34 697.07 359.03 697.46 348.74 730.54 346.32 736.37 338.11 759.47 339.57 772 330.25 792.13 331.65 810.96 322.67 818.93 336.37 Z" id="TR-26"/>
<path d="M 307.17 163.64 307.43 170.07 293.05 175.62 290.41 187.97 265.85 188.74 263.17 174.08 266.98 161.55 286.13 157.07 291.46 162.7 307.17 163.64 Z" id="TR-27"/>
<path d="M 51.42 142.63 44.78 159.57 45.37 184.3 45.83 190.49 32.06 195.06 9.49 194.48 5.95 184.97 22.48 170.13 20.13 154.39 37.6 141.71 35.44 123.48 23.43 116.51 36.68 98.86 55.36 95.9 56.71 128.06 51.42 142.63 Z" id="TR-28"/>
<path d="M 759.47 339.57 736.37 338.11 730.54 346.32 697.46 348.74 661.02 339.55 656.66 332.07 671.79 320.02 674.34 303.8 678.11 301.76 679.74 311.9 692.61 311.18 717.09 321.08 732.33 316.43 744.54 298.02 762.74 288.77 759.31 308.24 764.43 317.56 756.68 330.59 759.47 339.57 Z" id="TR-29"/>
<path d="M 776.81 268.2 772.74 266.86 737.99 266.71 727.4 274 707.42 270.15 696.32 272.73 680.21 285.11 678.11 301.76 674.34 303.8 657.04 294.64 659.25 276.18 657.64 245.6 661.95 237.98 675.29 239.03 679.2 232.52 687.38 231.57 714.94 244.64 732.64 240.61 748.78 231.29 759.16 233.19 780.48 258.21 776.81 268.2 Z" id="TR-30"/>
<path d="M 867.24 167.82 878.72 191.63 876.67 207.77 857.67 215.93 879.69 239.48 875.16 252.19 874.25 271.07 862.39 275.16 860.28 283.78 841.23 293.11 831.62 290.29 817.31 278.06 808.45 279.98 789.61 265.64 776.81 268.2 780.48 258.21 759.16 233.19 769.62 234.06 784.52 225.16 775.35 217.53 770.37 198.93 803.35 179.97 815.41 181.96 816.06 195.89 830.79 190.28 844.66 191.64 850.42 171.46 867.24 167.82 Z" id="TR-31"/>
<path d="M 314.94 292.33 305.09 297.81 289.2 296.52 279.69 285.46 262.95 289.51 249.21 298.9 239.35 290.14 232.02 271.25 217.75 256.92 216.41 248.83 241.42 237.99 245.59 225.77 253.8 224.05 261.59 226.22 263.82 232.67 301.23 234.88 313.83 244.93 313.25 254.72 320.77 269.81 321.72 282.89 314.94 292.33 Z" id="TR-32"/>
<path d="M 641.02 408.82 630.28 417.1 631.94 433.79 638.86 449.25 612.31 460.4 586.14 437.05 574.01 450.48 567.91 448.49 555.96 440.82 571.09 419.51 579.56 413.85 593.65 416.54 616.87 411.48 618.36 403.87 628.03 401.88 641.02 408.82 Z" id="TR-33"/>
<path d="M 700.61 161.46 699.07 182.26 687.62 187.81 683.07 203.21 694.71 210.04 686.19 218.99 687.38 231.57 679.2 232.52 663.12 229.21 651.51 222.22 646.52 200.78 638.77 184.3 644.81 169.77 657.79 172.93 676.09 170.06 700.61 161.46 Z" id="TR-34"/>
<path d="M 748.94 200.53 737.53 212.14 732.64 240.61 714.94 244.64 687.38 231.57 686.19 218.99 694.71 210.04 683.07 203.21 687.62 187.81 699.07 182.26 725.02 197.06 731.67 189.28 748.94 200.53 Z" id="TR-35"/>
<path d="M 985.85 386.92 987.33 408.37 999 417.43 969.69 438.86 968.03 419.31 937.85 422.5 929.1 420.02 925.62 415.23 928.82 389.57 949.81 391.36 966.12 386.8 968.8 396.23 985.85 386.92 Z" id="TR-36"/>
<path d="M 555.96 440.82 567.91 448.49 561.8 470.52 569.89 486.59 533.35 510.38 520.92 482.42 541.09 464.37 543.44 451.99 529.08 445.65 534.77 436.06 555.96 440.82 Z" id="TR-37"/>
<path d="M 981.72 256.73 955.12 257.38 943.24 251.03 923.45 249.98 921.14 238.44 924.58 223.3 937.65 220.82 937.26 228.26 950.48 234.61 969.37 232.44 981.31 238.28 987.54 251.43 981.72 256.73 Z" id="TR-38"/>
<path d="M 285.34 409.69 263.8 413.13 253.18 394 232.8 382.07 215.94 386.57 241.78 359.77 257.09 352.31 272.92 337.04 281.49 342.8 300.9 363.76 290.61 374.05 292.08 386.2 285.34 409.69 Z" id="TR-39"/>
<path d="M 208.17 156.7 197.01 165.89 188.75 164.13 177.7 177.1 163.67 168.15 171.22 150.97 208.17 156.7 Z M 116.17 162.45 120.19 128.21 143.42 142.26 168.67 150.25 161.43 166.54 142.38 169.37 122 161.2 116.17 162.45 Z" fill-rule="evenodd" id="TR-40"/>
<path d="M 139.26 364.12 123.24 370.05 85.8 372.43 70.96 378.54 70.18 372.88 51.4 367.28 45.01 357.81 20.15 355.32 31.22 342.53 23.83 336.22 29.16 326.17 44.26 346.54 54.25 341.67 42.63 327.82 43.07 321.61 60.28 312.27 46.1 307.1 44.35 292.37 66.14 275.48 78.35 278.2 83.51 302.77 65.68 311.45 71.6 333.01 81.17 333.68 103.71 348.68 110.55 344.44 132.92 351.82 139.26 364.12 Z" id="TR-41"/>
<path d="M 600.68 331.41 609.87 341.22 625.97 349.95 626.18 356.73 614.94 384.15 607.75 391.17 618.36 403.87 616.87 411.48 593.65 416.54 579.56 413.85 571.09 419.51 563.38 410.96 545.59 413.24 548.55 394.63 549.23 379.03 558.55 350.21 571.28 331.74 600.68 331.41 Z" id="TR-42"/>
<path d="M 378.05 160.42 375.45 165.48 357.69 169.57 348.56 177.83 325.98 165.34 328.95 154.98 339.83 149.95 353 143.1 370.04 127.81 376.34 137.47 369.42 147.36 378.05 160.42 Z" id="TR-43"/>
<path d="M 437.29 425.98 413.64 435.9 394.36 437.86 371.96 450.3 385.48 465.11 376.87 472.63 355.9 474.12 347.93 466.88 345.99 454.12 360.66 447.56 351.13 436.55 357.66 423.77 368.37 414.77 384.62 407.77 394.51 411.49 400.15 401.59 412.36 397.5 423.46 419.85 437.29 425.98 Z" id="TR-44"/>
<path d="M 937.65 220.82 924.58 223.3 921.14 238.44 908.07 235.31 887.33 241.53 879.69 239.48 857.67 215.93 876.67 207.77 878.72 191.63 893.94 186.57 899.09 170.88 911.48 166.57 917.45 153.82 938.13 171.27 942.19 185.01 931.45 202.97 937.65 220.82 Z" id="TR-45"/>
<path d="M 438.81 99.48 441.06 114.76 458.52 119.7 451.43 128.73 451.98 145.37 437.97 163.83 440.29 172.53 428.74 177.01 417.84 172.47 417.75 159.83 394.02 169.22 378.05 160.42 369.42 147.36 376.34 137.47 370.04 127.81 357.11 108.03 391.85 94.86 438.81 99.48 Z" id="TR-46"/>
<path d="M 571.28 331.74 558.55 350.21 554.15 340.85 540.33 344.45 533.27 358.97 515.7 367.4 511.69 374.8 493.75 374.11 496.23 361.13 475.61 342.42 483.41 330.23 477.23 317.76 481.68 301.54 491.93 303.88 522.66 283.79 536.16 295.31 573.66 292.24 582.53 300.09 571.28 331.74 Z" id="TR-47"/>
<path d="M 612.31 460.4 592.14 459.99 574.01 450.48 586.14 437.05 612.31 460.4 Z" id="TR-48"/>
<path d="M 425.01 217.92 436.96 233.8 429.71 242.41 430.48 249.03 421.87 256.57 414.16 273.9 401.89 286.82 386.47 278.97 392.81 252.95 405.68 243.6 404.39 232.95 412.52 216.7 425.01 217.92 Z" id="TR-49"/>
<path d="M 117.56 125.94 92.46 134.57 83.38 151.27 70.27 142.27 51.42 142.63 56.71 128.06 55.36 95.9 60.9 89.62 76.72 92.79 85.1 102.46 110.47 97.81 109.49 110.76 117.56 125.94 Z" id="TR-50"/>
<path d="M 461.55 271.03 459.88 298.18 449.84 312.49 440.72 318.07 422.96 303.57 401.89 286.82 414.16 273.9 421.87 256.57 430.48 249.03 449.06 254.03 461.55 271.03 Z" id="TR-51"/>
<path d="M 234.91 154.12 228.18 191.95 211.41 196.01 202.24 193.64 185.31 197.21 185.92 188.06 177.7 177.1 188.75 164.13 197.01 165.89 208.17 156.7 234.91 154.12 Z" id="TR-52"/>
<path d="M 398.56 328.68 394.1 333.67 386.83 357.9 400.81 375.86 433.48 370.47 450.69 391.34 447.15 407.73 453.79 414.67 437.29 425.98 423.46 419.85 412.36 397.5 400.15 401.59 394.51 411.49 384.62 407.77 368.37 414.77 357.66 423.77 351.13 436.55 360.66 447.56 345.99 454.12 333.75 438.13 314.04 419.6 292 415.02 285.34 409.69 292.08 386.2 290.61 374.05 300.9 363.76 281.49 342.8 304.16 328.94 299.61 324.34 305.09 297.81 314.94 292.33 327.98 302.04 345.7 304.47 371.69 295.61 383.9 285.32 393.75 301.55 393.2 318.57 398.56 328.68 Z" id="TR-53"/>
<path d="M 198.31 242.37 200.73 253.65 217.75 256.92 232.02 271.25 239.35 290.14 230.28 297.63 221.48 316.24 209.8 323.74 208.13 313.92 197.87 311.56 164.45 322.53 156.97 299.34 144.66 293 156.35 279.21 160.58 264.03 174.65 266.19 184.03 242.3 198.31 242.37 Z" id="TR-54"/>
<path d="M 674.34 303.8 671.79 320.02 656.66 332.07 661.02 339.55 697.46 348.74 697.07 359.03 673.58 365.27 659.37 358.03 645.42 365.41 647.87 376.8 614.94 384.15 626.18 356.73 625.97 349.95 609.87 341.22 600.68 331.41 615.77 319.24 616.26 303.65 627.24 303.92 657.04 294.64 674.34 303.8 Z" id="TR-55"/>
<path d="M 144.66 293 156.97 299.34 164.45 322.53 154.53 332.44 158.34 353.62 147.71 364.75 139.26 364.12 132.92 351.82 110.55 344.44 103.71 348.68 81.17 333.68 71.6 333.01 65.68 311.45 83.51 302.77 78.35 278.2 105.28 281.77 104.15 288.1 119.49 300.56 144.66 293 Z" id="TR-56"/>
<path d="M 799.62 388.76 806.88 400.91 827.19 399.53 843.08 388.71 843.88 389.49 847.07 402.98 836.04 406.78 842.84 428.57 823.36 432.5 785.35 429.79 757.51 443.27 737.75 400.94 758.46 400.19 785.39 390.11 799.62 388.76 Z" id="TR-57"/>
<path d="M 475.22 455.84 457.13 452.65 430.93 477.2 410.31 492.81 371.34 496.47 363.63 501.88 351.03 496.72 355.9 474.12 376.87 472.63 385.48 465.11 371.96 450.3 394.36 437.86 413.64 435.9 437.29 425.98 453.79 414.67 468.25 411.57 483.18 449.92 475.22 455.84 Z" id="TR-58"/>
<path d="M 141.6 406.16 150.99 421.36 165.87 430.86 176.37 445.56 183.02 432.72 198.69 443.08 192.2 464 180.33 473.84 176.39 483.6 167.96 476.83 168.93 461.73 153.57 460.95 131.21 451.68 113.29 463.17 108.64 435.65 81 432.33 89.12 420.71 78.72 410.27 83.93 399.73 103.58 407.53 117.91 406.16 125.97 398.97 141.6 406.16 Z" id="TR-59"/>
<path d="M 889.39 301.6 890.54 308.04 866.5 308.35 849.56 317.31 843.12 331.64 824.49 335.05 818.93 336.37 810.96 322.67 805.25 311.29 811.4 302.11 808.45 279.98 817.31 278.06 831.62 290.29 841.23 293.11 860.28 283.78 862.39 275.16 874.25 271.07 885.1 286.87 889.39 301.6 Z" id="TR-60"/>
<path d="M 481.68 301.54 477.23 317.76 483.41 330.23 475.61 342.42 468.35 347.69 447.69 341.98 437.76 325.02 440.72 318.07 449.84 312.49 459.88 298.18 461.55 271.03 475.67 281.66 481.68 301.54 Z" id="TR-61"/>
<path d="M 475.61 342.42 496.23 361.13 493.75 374.11 483.57 390.48 472.8 390.72 468.25 411.57 453.79 414.67 447.15 407.73 450.69 391.34 433.48 370.47 447.74 359.92 447.69 341.98 468.35 347.69 475.61 342.42 Z" id="TR-62"/>
<path d="M 644.81 169.77 638.77 184.3 646.52 200.78 628.8 212.39 619.68 204.81 599.14 188.67 583.63 187.07 569.4 177.33 580.38 171.91 593.39 156.29 613.79 165.16 627.07 158.51 632.65 167.72 644.81 169.77 Z" id="TR-63"/>
<path d="M 571.09 419.51 555.96 440.82 534.77 436.06 526.39 414.16 533.59 400.86 548.55 394.63 545.59 413.24 563.38 410.96 571.09 419.51 Z" id="TR-64"/>
<path d="M 803.35 179.97 770.37 198.93 769.58 198.93 771.08 184.65 761.72 166.96 782.14 160.51 808.07 145.44 815.6 163.58 803.35 179.97 Z" id="TR-65"/>
<path d="M 234.91 154.12 266.98 161.55 263.17 174.08 265.85 188.74 265.43 196.34 251.13 200.11 248.36 212.78 240 209.06 222.67 210.51 212.29 199.2 211.41 196.01 228.18 191.95 234.91 154.12 Z" id="TR-66"/>
<path d="M 593.39 156.29 580.38 171.91 569.4 177.33 556.25 175.7 543.35 168.02 537.61 176.79 517.46 175.25 505.36 165.77 484.63 160.3 474 148.89 485.19 140.49 501.33 147.09 506.08 121.61 530.18 115.04 538.68 122.88 539.45 134.16 553.44 149.03 565.38 140.91 585.84 147.24 593.39 156.29 Z" id="TR-67"/>
<path d="M 737.75 400.94 757.51 443.27 735.66 453.84 703.18 459.77 676.96 456.98 668.08 448.35 648.89 443.8 638.86 449.25 631.94 433.79 630.28 417.1 641.02 408.82 647.23 410.83 682.39 394.97 690.92 376.83 700.61 369.34 713.02 371.72 736.53 387.91 737.75 400.94 Z" id="TR-68"/>
<path d="M 893.93 367.01 904.68 375.61 901.84 384.11 881.1 379.66 866.63 391.73 843.88 389.49 843.08 388.71 818.62 376.47 828.96 368.82 832.56 358.33 851.12 362.73 860.74 356.87 887.93 370.43 893.93 367.01 Z" id="TR-69"/>
<path d="M 506.08 121.61 501.33 147.09 485.19 140.49 474 148.89 451.98 145.37 451.43 128.73 458.52 119.7 441.06 114.76 438.81 99.48 469.21 99.46 480.62 89.76 494.29 116.39 506.08 121.61 Z" id="TR-70"/>
<path d="M 901.84 384.11 928.82 389.57 925.62 415.23 929.1 420.02 911.46 413.03 888.38 414.95 881.03 428.03 870.68 430.35 860 419.11 842.84 428.57 836.04 406.78 847.07 402.98 843.88 389.49 866.63 391.73 881.1 379.66 901.84 384.11 Z" id="TR-71"/>
<path d="M 679.2 232.52 675.29 239.03 661.95 237.98 657.64 245.6 659.25 276.18 657.04 294.64 627.24 303.92 616.26 303.65 615.77 319.24 600.68 331.41 571.28 331.74 582.53 300.09 573.66 292.24 536.16 295.31 522.66 283.79 536.07 269.95 540.05 258.82 531.81 239.6 556.26 239.29 566.4 235.5 574.25 221.28 588.43 220.7 608.38 225.32 619.68 204.81 628.8 212.39 646.52 200.78 651.51 222.22 663.12 229.21 679.2 232.52 Z" id="TR-72"/>
<path d="M 117.56 125.94 120.19 128.21 116.17 162.45 106.14 169.17 83.82 168.42 73.14 187.35 58.35 195.1 58.99 183.33 45.37 184.3 44.78 159.57 51.42 142.63 70.27 142.27 83.38 151.27 92.46 134.57 117.56 125.94 Z" id="TR-73"/>
<path d="M 569.4 177.33 583.63 187.07 599.14 188.67 619.68 204.81 608.38 225.32 588.43 220.7 574.25 221.28 566.4 235.5 556.26 239.29 531.81 239.6 528.32 230.04 514.12 230.05 506.77 222.82 523.6 201.99 541.68 205.01 557.58 186.42 556.25 175.7 569.4 177.33 Z" id="TR-74"/>
<path d="M 761.72 166.96 771.08 184.65 769.58 198.93 748.94 200.53 731.67 189.28 725.02 197.06 699.07 182.26 700.61 161.46 713.27 159.11 725.01 166.64 756.22 171.61 761.72 166.96 Z" id="TR-75"/>
<path d="M 772.74 266.86 744.54 298.02 732.33 316.43 717.09 321.08 692.61 311.18 679.74 311.9 678.11 301.76 680.21 285.11 696.32 272.73 707.42 270.15 727.4 274 737.99 266.71 772.74 266.86 Z" id="TR-76"/>
<path d="M 209.8 323.74 202.45 340.96 191.28 358.32 174.22 358.31 158.34 353.62 154.53 332.44 164.45 322.53 197.87 311.56 208.13 313.92 209.8 323.74 Z" id="TR-77"/>
<path d="M 958.11 279.61 967.02 294.71 965.71 306.97 972.19 315.36 972.55 345.77 976.69 361.96 968.1 378.92 985.85 386.92 968.8 396.23 966.12 386.8 949.81 391.36 928.82 389.57 901.84 384.11 904.68 375.61 893.93 367.01 886.24 345.26 897.47 335.36 913.08 312.23 903.8 297.64 912.28 282.07 924.8 277.54 958.11 279.61 Z" id="TR-78"/>
<path d="M 185.92 188.06 185.31 197.21 164.9 197.28 164.23 202.86 162.06 191.36 185.92 188.06 Z" id="TR-79"/>
<path d="M 506.77 222.82 514.12 230.05 528.32 230.04 531.81 239.6 540.05 258.82 536.07 269.95 522.66 283.79 491.93 303.88 481.68 301.54 475.67 281.66 461.55 271.03 449.06 254.03 430.48 249.03 429.71 242.41 448.34 236.36 482.72 233.83 497.27 220.12 506.77 222.82 Z" id="TR-80"/>
<path d="M 322.22 127.18 339.83 149.95 328.95 154.98 325.98 165.34 307.17 163.64 291.46 162.7 286.13 157.07 289.56 144.41 322.22 127.18 Z" id="TR-81"/>
  </g>
</svg>

